<svg width="26" height="26" viewBox="0 0 26 26" fill="none" xmlns="http://www.w3.org/2000/svg">
<g opacity="0.2">
<path fill-rule="evenodd" clip-rule="evenodd" d="M8.11975 10.3095C5.91841 12.6917 5.965 16.4682 8.2595 18.8072C9.37966 19.9522 10.8682 20.5838 12.4542 20.5849H12.4596C14.0488 20.5849 15.5427 19.9533 16.6683 18.8072C19.004 16.426 18.9997 12.5531 16.6586 10.1752L13.4237 6.86991C13.0966 9.55874 12.088 11.9182 10.2918 11.9182C9.7415 11.9182 8.8445 11.6734 8.11975 10.3095ZM12.4596 22.7516H12.452C10.2788 22.7494 8.24 21.8882 6.71141 20.3227C3.55458 17.1052 3.55025 11.8695 6.70166 8.65741L7.76658 7.58057C8.04175 7.30541 8.4415 7.19924 8.81958 7.29782C9.1955 7.39966 9.488 7.69541 9.5855 8.07241C9.83466 9.03549 10.1315 9.50891 10.2951 9.68874C10.6797 9.28357 11.3752 7.64666 11.3752 4.87657C11.3752 4.71732 11.3752 4.56674 11.3665 4.41616C11.3459 4.09657 11.4683 3.78349 11.7002 3.56249C12.1302 3.15407 12.8192 3.15407 13.232 3.57874L18.2045 8.65849C21.3678 11.8695 21.3732 17.1052 18.2153 20.3238C16.6781 21.8903 14.6349 22.7516 12.4596 22.7516Z" fill="black"/>
</g>
</svg>
