<svg width="17" height="22" viewBox="0 0 17 22" fill="none" xmlns="http://www.w3.org/2000/svg">
<path fill-rule="evenodd" clip-rule="evenodd" d="M16.5834 20.6297C16.5834 21.2942 16.0645 21.8334 15.4227 21.8334C14.7808 21.8334 14.2619 21.2942 14.2619 20.6297C14.2619 17.3111 11.6585 14.6112 8.45837 14.6112C5.25829 14.6112 2.6548 17.3111 2.6548 20.6297C2.6548 21.2942 2.13596 21.8334 1.49409 21.8334C0.852213 21.8334 0.333374 21.2942 0.333374 20.6297C0.333374 15.9834 3.97918 12.2038 8.45837 12.2038C12.9376 12.2038 16.5834 15.9834 16.5834 20.6297ZM8.45837 2.57416C9.73864 2.57416 10.7798 3.65388 10.7798 4.98156C10.7798 6.30925 9.73864 7.38897 8.45837 7.38897C7.17811 7.38897 6.13695 6.30925 6.13695 4.98156C6.13695 3.65388 7.17811 2.57416 8.45837 2.57416ZM8.45837 9.79638C11.0189 9.79638 13.1012 7.63693 13.1012 4.98156C13.1012 2.32619 11.0189 0.166748 8.45837 0.166748C5.89784 0.166748 3.81552 2.32619 3.81552 4.98156C3.81552 7.63693 5.89784 9.79638 8.45837 9.79638Z" fill="black"/>
</svg>
