<svg width="16" height="22" viewBox="0 0 16 22" fill="none" xmlns="http://www.w3.org/2000/svg">
<path fill-rule="evenodd" clip-rule="evenodd" d="M15.9998 10.9996C15.9998 14.6476 14.6048 18.1006 12.0708 20.7246C11.6878 21.1216 11.0538 21.1326 10.6568 20.7496C10.4538 20.5536 10.3518 20.2916 10.3518 20.0306C10.3518 19.7806 10.4448 19.5296 10.6328 19.3356C12.8038 17.0856 13.9998 14.1256 13.9998 10.9996C13.9998 7.87363 12.8038 4.91363 10.6328 2.66363C10.2478 2.26863 10.2588 1.63463 10.6568 1.24963C11.0538 0.867626 11.6878 0.877626 12.0708 1.27563C14.6048 3.89963 15.9998 7.35263 15.9998 10.9996ZM11 11C11 8.57203 9.99896 6.21203 8.25196 4.52503C7.85396 4.14303 7.22096 4.15303 6.83796 4.55103C6.45396 4.94703 6.46496 5.58203 6.86196 5.96503C8.22096 7.27603 8.99996 9.11103 8.99996 11C8.99996 12.889 8.22096 14.724 6.86196 16.035C6.65896 16.231 6.55696 16.493 6.55696 16.755C6.55696 17.005 6.64996 17.256 6.83796 17.449C7.22096 17.847 7.85396 17.857 8.25196 17.475C9.99896 15.788 11 13.428 11 11ZM4.59696 7.52703C5.50096 8.46403 5.99996 9.69703 5.99996 11C5.99996 12.303 5.50096 13.536 4.59696 14.473C4.21296 14.87 3.57996 14.881 3.18296 14.498C2.97896 14.302 2.87696 14.04 2.87696 13.778C2.87696 13.528 2.97096 13.277 3.15796 13.084C4.24396 11.959 4.24396 10.041 3.15796 8.91603C2.77396 8.52103 2.78496 7.88703 3.18296 7.50203C3.57996 7.11903 4.21296 7.13003 4.59696 7.52703ZM0.999956 10C1.55196 10 1.99996 10.447 1.99996 11C1.99996 11.553 1.55196 12 0.999956 12C0.447956 12 -4.3869e-05 11.553 -4.3869e-05 11C-4.3869e-05 10.447 0.447956 10 0.999956 10Z" fill="white"/>
</svg>
