<svg width="30" height="36" viewBox="0 0 30 36" fill="none" xmlns="http://www.w3.org/2000/svg">
<path fill-rule="evenodd" clip-rule="evenodd" d="M7.37349 13.2444C3.48242 17.4552 3.56476 24.1305 7.62051 28.2648C9.60051 30.2888 12.2316 31.4052 15.035 31.4071H15.0445C17.8537 31.4071 20.4943 30.2908 22.4839 28.2648C26.6124 24.0559 26.6048 17.2101 22.4667 13.0069L16.7488 7.16459C16.1705 11.9174 14.3877 16.088 11.2128 16.088C10.2401 16.088 8.65455 15.6552 7.37349 13.2444ZM15.0445 35.2369H15.0311C11.1899 35.2331 7.58604 33.7108 4.88412 30.9437C-0.695876 25.2565 -0.703536 16.0018 4.86689 10.3242L6.74923 8.42076C7.23561 7.93437 7.94221 7.74671 8.61051 7.92097C9.27497 8.10097 9.792 8.62373 9.96434 9.29012C10.4048 10.9925 10.9294 11.8293 11.2186 12.1471C11.8984 11.431 13.1277 8.53756 13.1277 3.64118C13.1277 3.35969 13.1277 3.09352 13.1124 2.82735C13.076 2.26246 13.2924 1.70905 13.7022 1.31842C14.4624 0.596501 15.6803 0.596501 16.4099 1.34714L25.1992 10.3261C30.7907 16.0018 30.8003 25.2565 25.2184 30.9456C22.5011 33.7146 18.8897 35.2369 15.0445 35.2369Z" fill="#34B53A"/>
</svg>
