<svg width="36" height="36" viewBox="0 0 36 36" fill="none" xmlns="http://www.w3.org/2000/svg">
<path fill-rule="evenodd" clip-rule="evenodd" d="M15.2435 11.182C16.3656 12.3022 16.3656 14.1233 15.2435 15.2435C14.1214 16.3657 12.3041 16.3657 11.182 15.2435C10.0599 14.1233 10.0599 12.3022 11.182 11.182C12.3041 10.0599 14.1214 10.0599 15.2435 11.182ZM6.19276 19.7073L17.7434 31.2599L31.2587 17.7446L19.7081 6.19201L4.80063 4.8018L6.19276 19.7073ZM17.7434 35.2314C16.853 35.2314 15.9645 34.8924 15.2847 34.2165L2.9968 21.9267C2.68084 21.6127 2.48553 21.1952 2.4434 20.7509L0.773611 2.85818C0.721909 2.29137 0.922972 1.73031 1.32701 1.32627C1.73106 0.922225 2.29021 0.717331 2.85893 0.774778L20.7517 2.44457C21.196 2.48478 21.6115 2.6801 21.9274 2.99605L34.2153 15.2839C34.8721 15.9407 35.234 16.8139 35.234 17.7446C35.234 18.6752 34.8721 19.5484 34.2153 20.2052L20.204 34.2146C19.5262 34.8924 18.6357 35.2314 17.7434 35.2314Z" fill="#FFB200"/>
</svg>
